<svg xmlns="http://www.w3.org/2000/svg" xmlns:xlink="http://www.w3.org/1999/xlink" xml:space="preserve"
                    style="shape-rendering:geometricPrecision;text-rendering:geometricPrecision;image-rendering:optimizeQuality;"
                    viewBox="0 0 1.70666 2.133325" x="0px" y="0px" fill-rule="evenodd" clip-rule="evenodd">

    <g>
        <path fill="#ffffff" d="M0.605701 0.735626c-0.0395079,-0.0991181 -0.0597126,-0.205563 -0.0597126,-0.312201 0,-0.149929 0.0391811,-0.295189 0.113768,-0.423425 -0.313319,0.114445 -0.527783,0.417264 -0.527783,0.754677 0,0.198362 0.0720984,0.387039 0.203551,0.53435 0.0400079,-0.061189 0.108453,-0.098126 0.181299,-0.098126 0.092315,0 0.174728,0.0592874 0.204697,0.145626 0.0539134,0.0138937 0.0931457,0.0634173 0.0931457,0.120142 0,0.0131142 -0.00229134,0.0276811 -0.00670866,0.0403031 0.0236575,0.0209803 0.0246063,0.0311142 0.0388425,0.0560315 0.029252,0.00320079 0.058878,0.00480315 0.0882717,0.00480315 0.249197,0 0.482413,-0.115031 0.634244,-0.310335 -0.058878,0.0128307 -0.119181,0.0193228 -0.179961,0.0193228 -0.34515,-6.29921e-005 -0.655185,-0.211165 -0.783654,-0.531169zm-0.37315 0.173606c-0.011126,0 -0.020122,-0.00900394 -0.020122,-0.020122 0,-0.0111142 0.00900394,-0.0201181 0.020122,-0.0201181l0.160941 0c0.011122,0 0.020122,0.00900394 0.020122,0.0201181 0,0.0111181 -0.00900394,0.020122 -0.020122,0.020122l-0.160941 0zm0.28165 0.120693l-0.120709 0c-0.0111024,0 -0.020122,-0.00900394 -0.020122,-0.0201181 0,-0.0111181 0.00901969,-0.020122 0.020122,-0.020122l0.120709 -7.87402e-006c0.0111024,0 0.020122,0.00900394 0.020122,0.020122 0,0.0111142 -0.00901969,0.020126 -0.020122,0.020126z" />
        <path fill="#ffffff" d="M0.638406 0.708035l0.517547 1.1811e-005c0.0566181,0 0.102685,-0.0460866 0.102685,-0.102685 0,-0.0335354 -0.0164567,-0.0650157 -0.044,-0.0842717 -0.00820472,-0.00569291 -0.0109646,-0.0165827 -0.00645669,-0.0255118 0.00590551,-0.0117835 0.00889764,-0.0243937 0.00889764,-0.0376024 0,-0.0412441 -0.0307283,-0.0768661 -0.0714724,-0.082878 -0.00781496,-0.00113386 -0.014252,-0.00677953 -0.0164252,-0.0144291 -0.0213701,-0.0754449 -0.0911693,-0.128165 -0.169713,-0.128165 -0.0698701,0 -0.133213,0.0413504 -0.161417,0.105331 -0.00495669,0.0112913 -0.018811,0.0154685 -0.0292205,0.00889764 -0.0164567,-0.0104646 -0.0354488,-0.0159764 -0.0549843,-0.0159764 -0.0566181,0 -0.102685,0.0460433 -0.102685,0.102661 0,0.0144331 0.00293701,0.0283622 0.00873622,0.0414606 0.0061811,0.0139134 -0.00488976,0.0295315 -0.0200866,0.028185 -0.00355906,-0.000283465 -0.00667323,-0.000409449 -0.00967717,-0.000377953 0.00659055,0.0698858 0.0233543,0.139752 0.0482717,0.20535z" />
        <path fill="#ffffff" d="M0.771957 1.51974c-0.00820472,-0.00573228 -0.0109409,-0.0166181 -0.00645669,-0.0255512 0.0059252,-0.0117402 0.00891732,-0.0243898 0.00891732,-0.0375591 0,-0.0412441 -0.0307244,-0.0768976 -0.0714724,-0.082878 -0.00787402,-0.00129921 -0.0142087,-0.0066378 -0.0164213,-0.0144331 -0.019378,-0.0683976 -0.0785039,-0.11813 -0.147886,-0.126846 -0.0095,-0.00115748 -0.0186614,-0.00151181 -0.0282047,-0.00120866 -0.0650709,0.00239764 -0.124587,0.0412441 -0.152803,0.10037 -0.00615354,0.0126299 -0.0166181,0.0231142 -0.0314606,0.0137165 -0.0164567,-0.0104606 -0.0354606,-0.0159764 -0.0549843,-0.0159764 -0.0566181,0 -0.102685,0.0460866 -0.102685,0.102685 0,0.0143898 0.00294094,0.0283228 0.00873622,0.0414567 0.00286614,0.00649606 0.00209843,0.0140039 -0.0020315,0.0198071 -0.00746457,0.0105433 -0.0162874,0.0079685 -0.0268307,0.0079685 -0.0566378,0 -0.102685,0.0460866 -0.102685,0.102685 0,0.0565984 0.0460669,0.102685 0.102685,0.102685l0.564902 -7.87402e-006c0.0566142,0 0.102681,-0.0460866 0.102681,-0.102685 0,-0.0330197 -0.0166772,-0.0654882 -0.044,-0.0842283z" />
        <path fill="#ffffff" d="M1.56039 0.0239882c-0.0554606,0 -0.100587,0.0451378 -0.100587,0.100606 0,0.0554646 0.045126,0.100563 0.100587,0.100563 0.0554606,0 0.100587,-0.0451024 0.100587,-0.100563 0,-0.0554646 -0.045126,-0.100606 -0.100587,-0.100606z" />
        <path fill="#ffffff" d="M1.47991 0.949449c0.0332756,0 0.0603543,-0.027063 0.0603543,-0.0603386 0,-0.0332874 -0.0270591,-0.0603701 -0.0603543,-0.0603701 -0.0332913,0 -0.060374,0.027063 -0.060374,0.0603701 2.3622e-005,0.0332559 0.0270827,0.0603386 0.060374,0.0603386z" />
    </g>
    
    <text x="0" y="16.70666" fill="#ffffff" font-size="5px" font-weight="bold"
        font-family="'Helvetica Neue', Helvetica, Arial-Unicode, Arial, Sans-serif">Created by Vector Valley</text>
    <text x="0" y="21.70666" fill="#ffffff" font-size="5px" font-weight="bold"
        font-family="'Helvetica Neue', Helvetica, Arial-Unicode, Arial, Sans-serif">from the Noun Project</text>

</svg>